<svg
      width="16"
      height="16"
      viewBox="0 0 16 16"
      fill="none"
      xmlns="http://www.w3.org/2000/svg"
    >
      <path
        d="M0.650409 1.95141C0.291198 1.59221 0.291188 1.00983 0.650386 0.650617C1.00958 0.291407 1.59197 0.291396 1.95118 0.650594L15.3496 14.0485C15.7088 14.4077 15.7088 14.9901 15.3496 15.3493C14.9904 15.7085 14.408 15.7086 14.0488 15.3494L0.650409 1.95141Z"
        fill="#545454"
        stroke="#545454"
        stroke-width="0.5"
      />
      <path
        d="M0.650897 15.3496C0.291686 14.9904 0.291676 14.408 0.650874 14.0488L14.0488 0.6504C14.408 0.291189 14.9904 0.291179 15.3496 0.650376C15.7088 1.00957 15.7088 1.59196 15.3496 1.95117L1.95169 15.3496C1.59249 15.7088 1.01011 15.7088 0.650897 15.3496Z"
        fill="#545454"
        stroke="#545454"
        stroke-width="0.5"
      />
    </svg>
