<svg width="16.000000" height="16.000000" viewBox="0 0 16 16" fill="none" xmlns="http://www.w3.org/2000/svg" xmlns:xlink="http://www.w3.org/1999/xlink">
	<desc>
			Created with Pixso.
	</desc>
	<defs/>
	<path id="Vector" d="M0.650391 1.95142C0.291199 1.59229 0.291199 1.00977 0.650391 0.650635L0.650391 0.650635C1.00958 0.291504 1.59198 0.291504 1.95117 0.650635L15.3496 14.0486C15.7088 14.4077 15.7088 14.9902 15.3496 15.3494L15.3496 15.3494C14.9904 15.7085 14.408 15.7085 14.0488 15.3494L0.650391 1.95142Z" fill="#545454" fill-opacity="1.000000" fill-rule="nonzero"/>
	<path id="Vector" d="M15.3496 14.0486C15.7088 14.4077 15.7088 14.9902 15.3496 15.3494C14.9904 15.7085 14.408 15.7085 14.0488 15.3494L0.650391 1.95142C0.291199 1.59229 0.291199 1.00977 0.650391 0.650635C1.00958 0.291504 1.59198 0.291504 1.95117 0.650635L15.3496 14.0486Z" stroke="#545454" stroke-opacity="1.000000" stroke-width="0.500000"/>
	<path id="Vector" d="M0.650818 15.3496C0.291626 14.9905 0.291626 14.408 0.650818 14.0488L14.0488 0.650391C14.408 0.29126 14.9904 0.29126 15.3495 0.650391L15.3495 0.650391C15.7087 1.00952 15.7088 1.59204 15.3495 1.95117L1.95166 15.3496C1.59241 15.7087 1.01007 15.7087 0.650818 15.3496L0.650818 15.3496Z" fill="#545454" fill-opacity="1.000000" fill-rule="nonzero"/>
	<path id="Vector" d="M14.0488 0.650391C14.408 0.29126 14.9904 0.29126 15.3495 0.650391C15.7087 1.00952 15.7088 1.59204 15.3495 1.95117L1.9516 15.3496C1.59241 15.7087 1.01007 15.7087 0.650818 15.3496C0.291626 14.9905 0.291626 14.408 0.650818 14.0488L14.0488 0.650391Z" stroke="#545454" stroke-opacity="1.000000" stroke-width="0.500000"/>
</svg>
