<svg width="54.000000" height="23.000000" viewBox="0 0 54 23" fill="none" xmlns="http://www.w3.org/2000/svg" xmlns:xlink="http://www.w3.org/1999/xlink">
	<desc>
			Created with Pixso.
	</desc>
	<defs/>
	<path id="Vector" d="M40.38 -0.36L44.86 -0.36L53.21 22.36L48.67 22.36L46.56 16.69L38.62 16.69L36.54 22.36L32 22.36L40.38 -0.36ZM45.76 13.59L42.62 4.21L39.36 13.59L45.76 13.59Z" fill="#202020" fill-opacity="1.000000" fill-rule="evenodd"/>
	<path id="Vector" d="M10.14 -0.3L14.24 -0.3L16.83 7.22L19.45 -0.3L23.52 -0.3L19.61 10.04L22.49 17.27L28.92 -0.36L33.72 -0.36L24.64 22.36L20.83 22.36L16.83 12.82L12.86 22.36L9.05 22.36L0 -0.36L4.73 -0.36L11.2 17.27L14.01 10.04L10.14 -0.3Z" fill="#F5F4F4" fill-opacity="1.000000" fill-rule="evenodd"/>
</svg>
