<svg width="24.000000" height="24.000000" viewBox="0 0 24 24" fill="none" xmlns="http://www.w3.org/2000/svg" xmlns:xlink="http://www.w3.org/1999/xlink">
	<desc>
			Created with Pixso.
	</desc>
	<defs>
		<clipPath id="clip2_3683">
			<rect id="icons/ 24 /close" width="24.000000" height="24.000000" fill="white" fill-opacity="0"/>
		</clipPath>
	</defs>
	<rect id="icons/ 24 /close" width="24.000000" height="24.000000" fill="#FFFFFF" fill-opacity="0"/>
	<g clip-path="url(#clip2_3683)">
		<path id="Vector" d="M4.65 5.95C4.29 5.59 4.29 5 4.65 4.65C5 4.29 5.59 4.29 5.95 4.65L19.34 18.04C19.7 18.4 19.7 18.99 19.34 19.34C18.99 19.7 18.4 19.7 18.04 19.34L4.65 5.95Z" fill="#545454" fill-opacity="1.000000" fill-rule="nonzero"/>
		<path id="Vector" d="M19.34 18.04C19.7 18.4 19.7 18.99 19.34 19.34C18.99 19.7 18.4 19.7 18.04 19.34L4.65 5.95C4.29 5.59 4.29 5 4.65 4.65C5 4.29 5.59 4.29 5.95 4.65L19.34 18.04Z" stroke="#545454" stroke-opacity="1.000000" stroke-width="0.500000"/>
		<path id="Vector" d="M4.65 18.04L18.04 4.65C18.4 4.29 18.99 4.29 19.34 4.65C19.7 5 19.7 5.59 19.34 5.95L5.95 19.34C5.59 19.7 5.01 19.7 4.65 19.34C4.29 18.99 4.29 18.4 4.65 18.04Z" fill="#545454" fill-opacity="1.000000" fill-rule="nonzero"/>
		<path id="Vector" d="M18.04 4.65C18.4 4.29 18.99 4.29 19.34 4.65C19.7 5 19.7 5.59 19.34 5.95L5.95 19.34C5.59 19.7 5.01 19.7 4.65 19.34C4.29 18.99 4.29 18.4 4.65 18.04L18.04 4.65Z" stroke="#545454" stroke-opacity="1.000000" stroke-width="0.500000"/>
	</g>
</svg>
