<svg width="24.000000" height="24.000000" viewBox="0 0 24 24" fill="none" xmlns="http://www.w3.org/2000/svg"
  xmlns:xlink="http://www.w3.org/1999/xlink">
  <desc>
    Created with Pixso.
  </desc>
  <defs>
    <clipPath id="clip8034_7713">
      <rect id="icons / 32 / delete" width="24.000000" height="24.000000" fill="white" fill-opacity="0" />
    </clipPath>
  </defs>
  <rect id="icons / 32 / delete" width="24.000000" height="24.000000" fill="#FFFFFF" fill-opacity="0" />
  <g clip-path="url(#clip8034_7713)">
    <path id="Vector" d="M3 6L5 6L21 6" stroke="currentColor" stroke-opacity="1.000000" stroke-width="2.000000"
      stroke-linejoin="round" stroke-linecap="round" />
    <path id="Vector"
      d="M19 6L19 20C19 20.53 18.78 21.03 18.41 21.41C18.03 21.78 17.53 22 17 22L7 22C6.46 22 5.96 21.78 5.58 21.41C5.21 21.03 5 20.53 5 20L5 6M8 6L8 4C8 3.46 8.21 2.96 8.58 2.58C8.96 2.21 9.46 2 10 2L14 2C14.53 2 15.03 2.21 15.41 2.58C15.78 2.96 16 3.46 16 4L16 6"
      stroke="currentColor" stroke-opacity="1.000000" stroke-width="2.000000" stroke-linejoin="round" />
  </g>
</svg>