<svg width="54.000000" height="48.000000" viewBox="0 0 54 48" fill="none" xmlns="http://www.w3.org/2000/svg" xmlns:xlink="http://www.w3.org/1999/xlink">
	<desc>
			Created with Pixso.
	</desc>
	<defs/>
	<path id="Vector" d="M40.384 10.64L44.864 10.64L53.2161 33.36L48.672 33.36L46.5601 27.696L38.624 27.696L36.5439 33.36L32 33.36L40.384 10.64ZM45.76 24.592L42.624 15.216L39.36 24.592L45.76 24.592Z" fill="#202020" fill-opacity="1.000000" fill-rule="evenodd"/>
	<path id="Vector" d="M10.144 10.704L14.24 10.704L16.832 18.224L19.4561 10.704L23.52 10.704L19.616 21.04L22.496 28.272L28.928 10.64L33.728 10.64L24.64 33.36L20.832 33.36L16.832 23.824L12.864 33.36L9.05603 33.36L0 10.64L4.73596 10.64L11.2 28.272L14.016 21.04L10.144 10.704Z" fill="#F5F4F4" fill-opacity="1.000000" fill-rule="evenodd"/>
</svg>
